<?xml version="1.0" standalone="no"?>
<!DOCTYPE svg PUBLIC "-//W3C//DTD SVG 20010904//EN"
 "http://www.w3.org/TR/2001/REC-SVG-20010904/DTD/svg10.dtd">
<svg version="1.0" xmlns="http://www.w3.org/2000/svg"
 width="1600.000000pt" height="1600.000000pt" viewBox="0 0 1600.000000 1600.000000"
 preserveAspectRatio="xMidYMid meet">
<metadata>
Created by potrace 1.14, written by Peter Selinger 2001-2017
</metadata>
<g transform="translate(0.000000,1600.000000) scale(0.100000,-0.100000)"
fill="#000000" stroke="none">
<path d="M7945 13815 c-11 -2 -94 -9 -185 -15 -450 -32 -903 -125 -1360 -279
-242 -82 -440 -166 -690 -290 -885 -443 -1618 -1090 -2169 -1914 -187 -280
-413 -707 -525 -992 -26 -66 -52 -131 -58 -145 -20 -46 -127 -377 -148 -456
-84 -311 -130 -549 -172 -886 -21 -165 -23 -227 -23 -618 0 -491 10 -614 86
-1047 l11 -63 1372 0 1371 0 74 90 c41 50 79 90 83 90 5 0 12 8 15 18 4 9 12
22 19 27 7 6 54 60 104 120 51 61 99 114 106 118 8 4 14 15 14 22 0 8 4 15 9
15 4 0 50 51 102 113 51 61 115 135 140 162 26 28 98 111 160 185 62 74 119
140 125 145 7 6 54 60 104 120 51 61 98 114 106 118 8 4 14 15 14 22 0 8 4 15
8 15 5 0 51 51 102 113 52 61 101 119 109 128 25 25 123 138 182 209 29 35 60
72 69 81 36 38 101 113 185 212 49 59 93 107 97 107 4 0 8 7 8 15 0 8 4 15 8
15 4 0 48 48 97 107 50 60 101 119 115 133 13 14 72 81 129 150 58 69 124 145
147 170 23 25 78 89 123 143 93 111 129 153 152 176 9 9 58 66 109 126 51 61
98 114 106 118 8 4 14 14 14 21 0 16 -191 26 -520 26 l-235 0 -47 -58 c-26
-32 -74 -87 -106 -123 -33 -35 -101 -113 -152 -174 -50 -60 -98 -114 -106
-118 -8 -4 -14 -15 -14 -22 0 -8 -4 -15 -9 -15 -7 0 -58 -58 -335 -383 -43
-50 -100 -116 -127 -146 -27 -29 -49 -57 -49 -62 0 -5 -4 -9 -9 -9 -4 0 -47
-47 -95 -104 -47 -58 -107 -126 -131 -153 -25 -26 -78 -87 -118 -134 -125
-150 -231 -208 -379 -209 -200 -1 -363 124 -419 319 -42 147 -6 294 101 411
62 68 130 146 210 240 40 47 79 89 86 93 8 4 14 15 14 22 0 8 4 15 9 15 5 0
55 55 112 123 121 143 148 174 170 196 9 9 57 63 106 121 48 58 101 119 117
135 16 17 73 82 126 146 54 64 112 130 129 147 17 17 31 35 31 41 0 6 4 11 8
11 5 0 53 53 108 118 104 124 120 142 208 237 31 33 56 63 56 66 0 12 105 86
155 110 l50 24 1154 3 1155 2 65 -21 c141 -47 136 -42 871 -775 l695 -693 758
755 c421 418 757 760 754 767 -7 18 -150 210 -226 302 -284 346 -644 693 -986
950 -836 627 -1795 998 -2848 1101 -145 14 -730 28 -782 19z m2925 -953 c151
-53 227 -100 333 -201 135 -130 219 -287 252 -471 34 -196 4 -381 -91 -557
-109 -202 -273 -337 -509 -419 -74 -25 -93 -27 -240 -28 -153 -1 -242 11 -270
35 -5 5 -18 9 -30 10 -18 0 -62 21 -161 76 -21 11 -66 45 -99 73 -141 124
-229 258 -280 430 -23 74 -26 103 -25 230 0 80 4 161 10 180 36 135 45 155
107 266 90 162 290 317 493 382 87 28 111 31 280 27 131 -3 153 -6 230 -33z"/>
<path d="M13145 10533 c-276 -301 -1503 -1532 -1575 -1581 -126 -84 -238 -113
-362 -92 -144 24 -149 28 -634 512 l-441 440 -99 -118 c-99 -117 -108 -127
-174 -200 -19 -21 -70 -81 -113 -132 -90 -108 -126 -149 -148 -171 -9 -9 -58
-65 -109 -126 -51 -60 -98 -114 -106 -118 -8 -4 -14 -12 -14 -16 0 -5 -14 -24
-31 -42 -29 -31 -86 -97 -313 -362 -43 -51 -98 -114 -122 -140 -24 -26 -44
-51 -44 -55 0 -4 272 -279 604 -612 371 -372 614 -623 630 -651 14 -25 37 -78
51 -117 22 -63 25 -88 25 -209 0 -102 -5 -155 -19 -207 -10 -39 -28 -116 -41
-171 -12 -55 -30 -136 -40 -180 -10 -44 -28 -125 -40 -180 -12 -55 -30 -134
-40 -175 -10 -41 -28 -120 -40 -175 -12 -55 -30 -136 -40 -180 -10 -44 -27
-123 -39 -175 -11 -52 -30 -138 -41 -190 -12 -52 -29 -129 -39 -170 -37 -149
-61 -257 -61 -274 0 -10 -9 -50 -19 -89 -11 -40 -29 -117 -41 -172 -11 -55
-30 -136 -40 -180 -23 -96 -55 -249 -69 -325 -5 -30 -19 -97 -30 -147 -12 -51
-30 -133 -41 -183 -45 -204 -62 -278 -124 -555 -37 -159 -66 -291 -66 -292 0
-9 267 53 440 102 775 220 1472 594 2110 1133 158 133 493 469 630 632 869
1032 1329 2286 1330 3625 0 724 -131 1407 -400 2086 -61 154 -143 332 -156
336 -6 2 -55 -45 -109 -104z"/>
<path d="M7557 7448 c-33 -41 -70 -81 -156 -173 -20 -22 -91 -101 -156 -175
-66 -74 -133 -148 -149 -165 -16 -16 -91 -100 -165 -185 -124 -142 -180 -204
-210 -234 -6 -6 -55 -60 -108 -121 -161 -183 -204 -224 -291 -276 -45 -27 -87
-49 -92 -49 -6 0 -36 -8 -67 -19 -143 -47 -122 -46 -1656 -46 -796 0 -1447 -1
-1447 -2 0 -2 20 -48 46 -104 511 -1138 1439 -2108 2559 -2676 732 -371 1464
-562 2331 -609 l121 -6 16 68 c9 38 35 150 57 249 23 99 59 259 81 355 74 326
80 355 101 445 11 50 28 126 38 170 9 44 27 125 39 180 12 55 30 134 40 175
10 41 29 120 41 175 12 55 30 136 40 180 10 44 28 125 40 180 12 55 27 123 35
150 7 28 16 66 20 85 6 37 31 150 65 290 11 47 20 94 20 105 0 10 9 48 19 84
11 36 29 113 41 171 12 58 30 141 41 185 10 44 28 123 39 175 12 52 26 111 31
130 l9 35 -204 200 c-415 406 -1055 1026 -1102 1068 l-31 28 -36 -43z"/>
</g>
</svg>
